<svg xmlns="http://www.w3.org/2000/svg" xmlns:xlink="http://www.w3.org/1999/xlink" width="1920" zoomAndPan="magnify" viewBox="0 0 1440 374.999991" height="500" preserveAspectRatio="xMidYMid meet" version="1.0"><defs><g/><clipPath id="id1"><path d="M 0 174.84375 L 29 174.84375 L 29 214 L 0 214 Z M 0 174.84375 " clip-rule="nonzero"/></clipPath><clipPath id="id2"><path d="M 134 319 L 173.628906 319 L 173.628906 365 L 134 365 Z M 134 319 " clip-rule="nonzero"/></clipPath></defs><rect x="-144" width="1728" fill="#f05726" y="-37.499999" height="449.999989" fill-opacity="1"/><g fill="#000000" fill-opacity="1"><g transform="translate(735.790332, 194.441156)"><g/></g></g><path fill="#fa7928" d="M 816.492188 439.828125 L 103.328125 303.894531 L 175.789062 -76.257812 L 816.492188 439.828125 " fill-opacity="1" fill-rule="nonzero"/><path fill="#e38f30" d="M 633.515625 402.175781 L 77.808594 351.691406 L 114.449219 -51.648438 L 633.515625 402.175781 " fill-opacity="1" fill-rule="nonzero"/><path fill="#ffb601" d="M 505.136719 386.03125 L -22.179688 359.136719 L 1.734375 -109.75 L 505.136719 386.03125 " fill-opacity="1" fill-rule="nonzero"/><path fill="#fab028" d="M 372.035156 377.136719 L -4.457031 377.136719 L -4.457031 1.386719 L 372.035156 377.136719 " fill-opacity="1" fill-rule="nonzero"/><path fill="#f4bc33" d="M 120.261719 342.105469 C 120.261719 343.96875 120.21875 345.832031 120.125 347.691406 C 120.035156 349.554688 119.898438 351.410156 119.714844 353.265625 C 119.53125 355.121094 119.304688 356.96875 119.03125 358.8125 C 118.757812 360.65625 118.4375 362.492188 118.074219 364.320312 C 117.710938 366.148438 117.304688 367.964844 116.851562 369.773438 C 116.398438 371.582031 115.902344 373.375 115.359375 375.160156 C 114.820312 376.945312 114.234375 378.710938 113.605469 380.46875 C 112.980469 382.222656 112.308594 383.960938 111.59375 385.683594 C 110.882812 387.402344 110.128906 389.105469 109.332031 390.792969 C 108.535156 392.476562 107.695312 394.140625 106.816406 395.785156 C 105.9375 397.425781 105.019531 399.046875 104.0625 400.648438 C 103.105469 402.246094 102.109375 403.820312 101.074219 405.371094 C 100.035156 406.917969 98.964844 408.441406 97.855469 409.9375 C 96.742188 411.4375 95.597656 412.90625 94.414062 414.34375 C 93.234375 415.785156 92.015625 417.195312 90.765625 418.578125 C 89.511719 419.957031 88.230469 421.308594 86.910156 422.625 C 85.59375 423.941406 84.242188 425.226562 82.863281 426.480469 C 81.480469 427.730469 80.070312 428.949219 78.628906 430.128906 C 77.191406 431.3125 75.722656 432.457031 74.222656 433.570312 C 72.726562 434.679688 71.203125 435.75 69.65625 436.785156 C 68.105469 437.820312 66.53125 438.820312 64.933594 439.777344 C 63.335938 440.734375 61.714844 441.652344 60.070312 442.53125 C 58.425781 443.410156 56.761719 444.25 55.078125 445.042969 C 53.394531 445.839844 51.6875 446.597656 49.96875 447.308594 C 48.246094 448.023438 46.507812 448.695312 44.753906 449.320312 C 43 449.949219 41.230469 450.535156 39.445312 451.074219 C 37.664062 451.617188 35.867188 452.113281 34.058594 452.566406 C 32.25 453.019531 30.433594 453.425781 28.605469 453.789062 C 26.777344 454.152344 24.941406 454.472656 23.097656 454.746094 C 21.253906 455.019531 19.40625 455.246094 17.550781 455.429688 C 15.695312 455.613281 13.839844 455.75 11.976562 455.839844 C 10.117188 455.933594 8.253906 455.976562 6.390625 455.976562 C 4.527344 455.976562 2.664062 455.933594 0.800781 455.839844 C -1.058594 455.75 -2.917969 455.613281 -4.769531 455.429688 C -6.625 455.246094 -8.476562 455.019531 -10.320312 454.746094 C -12.160156 454.472656 -13.996094 454.152344 -15.824219 453.789062 C -17.652344 453.425781 -19.472656 453.019531 -21.277344 452.566406 C -23.085938 452.113281 -24.882812 451.617188 -26.664062 451.074219 C -28.449219 450.535156 -30.21875 449.949219 -31.972656 449.320312 C -33.726562 448.695312 -35.464844 448.023438 -37.1875 447.308594 C -38.910156 446.597656 -40.613281 445.839844 -42.296875 445.042969 C -43.980469 444.246094 -45.644531 443.410156 -47.289062 442.53125 C -48.933594 441.652344 -50.554688 440.734375 -52.152344 439.777344 C -53.75 438.820312 -55.324219 437.820312 -56.875 436.785156 C -58.425781 435.75 -59.949219 434.679688 -61.445312 433.570312 C -62.941406 432.457031 -64.410156 431.3125 -65.851562 430.128906 C -67.292969 428.949219 -68.703125 427.730469 -70.082031 426.480469 C -71.464844 425.226562 -72.8125 423.941406 -74.128906 422.625 C -75.449219 421.308594 -76.734375 419.957031 -77.984375 418.578125 C -79.234375 417.195312 -80.453125 415.785156 -81.636719 414.34375 C -82.816406 412.90625 -83.964844 411.4375 -85.074219 409.9375 C -86.183594 408.441406 -87.257812 406.917969 -88.292969 405.371094 C -89.328125 403.820312 -90.324219 402.246094 -91.28125 400.648438 C -92.242188 399.046875 -93.160156 397.425781 -94.039062 395.785156 C -94.914062 394.140625 -95.753906 392.476562 -96.550781 390.792969 C -97.347656 389.105469 -98.101562 387.402344 -98.816406 385.683594 C -99.527344 383.960938 -100.199219 382.222656 -100.828125 380.46875 C -101.453125 378.710938 -102.039062 376.945312 -102.582031 375.160156 C -103.121094 373.375 -103.617188 371.582031 -104.070312 369.773438 C -104.523438 367.964844 -104.933594 366.148438 -105.296875 364.320312 C -105.660156 362.492188 -105.976562 360.65625 -106.25 358.8125 C -106.523438 356.96875 -106.753906 355.121094 -106.933594 353.265625 C -107.117188 351.410156 -107.253906 349.554688 -107.347656 347.691406 C -107.4375 345.832031 -107.484375 343.96875 -107.484375 342.105469 C -107.484375 340.242188 -107.4375 338.378906 -107.347656 336.515625 C -107.253906 334.65625 -107.117188 332.796875 -106.933594 330.941406 C -106.753906 329.089844 -106.523438 327.238281 -106.25 325.394531 C -105.976562 323.550781 -105.660156 321.714844 -105.296875 319.890625 C -104.933594 318.0625 -104.523438 316.242188 -104.070312 314.433594 C -103.617188 312.628906 -103.121094 310.832031 -102.582031 309.046875 C -102.039062 307.265625 -101.453125 305.496094 -100.828125 303.742188 C -100.199219 301.988281 -99.527344 300.25 -98.816406 298.527344 C -98.101562 296.804688 -97.347656 295.101562 -96.550781 293.417969 C -95.753906 291.734375 -94.914062 290.070312 -94.039062 288.425781 C -93.160156 286.78125 -92.242188 285.160156 -91.28125 283.5625 C -90.324219 281.964844 -89.328125 280.390625 -88.292969 278.839844 C -87.257812 277.289062 -86.183594 275.765625 -85.074219 274.269531 C -83.964844 272.773438 -82.816406 271.304688 -81.636719 269.863281 C -80.453125 268.421875 -79.234375 267.011719 -77.984375 265.632812 C -76.734375 264.25 -75.449219 262.902344 -74.128906 261.582031 C -72.8125 260.265625 -71.464844 258.980469 -70.082031 257.730469 C -68.703125 256.476562 -67.292969 255.261719 -65.851562 254.078125 C -64.410156 252.898438 -62.941406 251.75 -61.445312 250.640625 C -59.949219 249.53125 -58.425781 248.457031 -56.875 247.421875 C -55.324219 246.386719 -53.75 245.390625 -52.152344 244.433594 C -50.554688 243.472656 -48.933594 242.554688 -47.289062 241.675781 C -45.644531 240.796875 -43.980469 239.960938 -42.296875 239.164062 C -40.613281 238.367188 -38.910156 237.613281 -37.1875 236.898438 C -35.464844 236.1875 -33.726562 235.515625 -31.972656 234.886719 C -30.21875 234.257812 -28.449219 233.675781 -26.664062 233.132812 C -24.882812 232.59375 -23.085938 232.097656 -21.277344 231.644531 C -19.472656 231.191406 -17.652344 230.78125 -15.824219 230.417969 C -13.996094 230.054688 -12.160156 229.738281 -10.320312 229.464844 C -8.476562 229.191406 -6.625 228.960938 -4.769531 228.777344 C -2.917969 228.597656 -1.058594 228.460938 0.800781 228.367188 C 2.664062 228.277344 4.527344 228.230469 6.390625 228.230469 C 8.253906 228.230469 10.117188 228.277344 11.976562 228.367188 C 13.839844 228.460938 15.695312 228.597656 17.550781 228.777344 C 19.40625 228.960938 21.253906 229.191406 23.097656 229.464844 C 24.941406 229.738281 26.777344 230.054688 28.605469 230.417969 C 30.433594 230.78125 32.25 231.191406 34.058594 231.644531 C 35.867188 232.097656 37.664062 232.59375 39.445312 233.132812 C 41.230469 233.675781 43 234.257812 44.753906 234.886719 C 46.507812 235.515625 48.246094 236.1875 49.96875 236.898438 C 51.6875 237.613281 53.394531 238.367188 55.078125 239.164062 C 56.761719 239.960938 58.425781 240.796875 60.070312 241.675781 C 61.714844 242.554688 63.335938 243.472656 64.933594 244.433594 C 66.53125 245.390625 68.105469 246.386719 69.65625 247.421875 C 71.203125 248.457031 72.726562 249.53125 74.222656 250.640625 C 75.722656 251.75 77.191406 252.898438 78.628906 254.078125 C 80.070312 255.261719 81.480469 256.476562 82.863281 257.730469 C 84.242188 258.980469 85.59375 260.265625 86.910156 261.582031 C 88.230469 262.902344 89.511719 264.25 90.765625 265.632812 C 92.015625 267.011719 93.234375 268.421875 94.414062 269.863281 C 95.597656 271.304688 96.742188 272.773438 97.855469 274.269531 C 98.964844 275.765625 100.035156 277.289062 101.074219 278.839844 C 102.109375 280.390625 103.105469 281.964844 104.0625 283.5625 C 105.019531 285.160156 105.9375 286.78125 106.816406 288.425781 C 107.695312 290.070312 108.535156 291.734375 109.332031 293.417969 C 110.128906 295.101562 110.882812 296.804688 111.59375 298.527344 C 112.308594 300.25 112.980469 301.988281 113.605469 303.742188 C 114.234375 305.496094 114.820312 307.265625 115.359375 309.046875 C 115.902344 310.832031 116.398438 312.628906 116.851562 314.433594 C 117.304688 316.242188 117.710938 318.0625 118.074219 319.890625 C 118.4375 321.714844 118.757812 323.550781 119.03125 325.394531 C 119.304688 327.238281 119.53125 329.089844 119.714844 330.941406 C 119.898438 332.796875 120.035156 334.65625 120.125 336.515625 C 120.21875 338.378906 120.261719 340.242188 120.261719 342.105469 Z M 120.261719 342.105469 " fill-opacity="1" fill-rule="nonzero"/><g clip-path="url(#id1)"><path fill="#f4bc33" d="M -16.089844 213.792969 L 6.390625 174.84375 L 28.871094 213.792969 Z M -16.089844 213.792969 " fill-opacity="1" fill-rule="nonzero"/></g><g clip-path="url(#id2)"><path fill="#f4bc33" d="M 134.703125 319.628906 L 173.652344 342.101562 L 134.703125 364.585938 Z M 134.703125 319.628906 " fill-opacity="1" fill-rule="nonzero"/></g><path fill="#f4bc33" d="M 106.273438 258.480469 L 151.242188 258.472656 L 128.75 297.417969 Z M 106.273438 258.480469 " fill-opacity="1" fill-rule="nonzero"/><path fill="#f4bc33" d="M 51.078125 219.746094 L 90.019531 197.25 L 90.015625 242.226562 Z M 51.078125 219.746094 " fill-opacity="1" fill-rule="nonzero"/><g fill="#ffb601" fill-opacity="0.302"><g transform="translate(118.236082, 173.74212)"><g><path d="M 42.535156 -16.269531 L 47.804688 0 L 65.621094 0 L 42.988281 -62.710938 L 22.996094 -62.710938 L 0.363281 0 L 17.722656 0 L 22.996094 -16.269531 Z M 32.808594 -48.261719 L 38.625 -28.992188 L 26.992188 -28.992188 Z M 32.808594 -48.261719 "/></g></g></g><g fill="#ffb601" fill-opacity="0.302"><g transform="translate(182.491587, 173.74212)"><g><path d="M 55.894531 -48.535156 L 39.535156 -48.535156 L 39.535156 -42.261719 L 36.355469 -47.441406 C 33.902344 -48.898438 29.175781 -49.804688 25.175781 -49.804688 C 12.722656 -49.804688 2.179688 -41.171875 2.179688 -23.902344 C 2.179688 -9.542969 11.269531 -0.546875 24.449219 -0.546875 C 29.355469 -0.546875 33.171875 -1.546875 35.898438 -3.542969 L 39.535156 -8.90625 L 39.535156 -7.542969 C 39.535156 -4.90625 39.445312 -2.636719 39.355469 -1.179688 C 38.898438 5.363281 34.445312 7.996094 28.355469 7.996094 C 23.265625 7.996094 19.539062 6.179688 19.175781 3 L 19.085938 2.089844 L 3.273438 2.089844 L 3.363281 3 C 4.542969 14.085938 13.359375 19.996094 27.902344 19.996094 C 44.351562 19.996094 55.257812 12.90625 55.804688 -3 C 55.894531 -5.636719 55.894531 -9.359375 55.894531 -12.359375 Z M 29.175781 -11.632812 C 23.449219 -11.632812 18.90625 -15.996094 18.90625 -25.085938 C 18.90625 -34.992188 23.265625 -38.71875 29.628906 -38.71875 C 34.535156 -38.71875 39.535156 -35.445312 39.535156 -25.722656 L 39.535156 -25.449219 C 39.535156 -15.269531 35.171875 -11.632812 29.175781 -11.632812 Z M 29.175781 -11.632812 "/></g></g></g><g fill="#ffb601" fill-opacity="0.302"><g transform="translate(243.293465, 173.74212)"><g><path d="M 34.265625 -49.804688 C 31.175781 -49.804688 27.355469 -48.441406 24.722656 -45.535156 L 21.265625 -38.71875 L 21.265625 -48.535156 L 4.90625 -48.535156 L 4.90625 0 L 21.265625 0 L 21.265625 -17.8125 C 21.265625 -32.445312 25.722656 -36.992188 37.992188 -36.171875 L 37.992188 -49.53125 C 36.808594 -49.714844 35.808594 -49.804688 34.265625 -49.804688 Z M 34.265625 -49.804688 "/></g></g></g><g fill="#ffb601" fill-opacity="0.302"><g transform="translate(281.465051, 173.74212)"><g><path d="M 28.265625 -49.804688 C 12.359375 -49.804688 2.179688 -39.898438 2.179688 -24.265625 C 2.179688 -8.726562 12.359375 1.273438 28.265625 1.273438 C 44.171875 1.273438 54.351562 -8.726562 54.351562 -24.265625 C 54.351562 -39.898438 44.171875 -49.804688 28.265625 -49.804688 Z M 28.265625 -9.816406 C 22.449219 -9.816406 18.90625 -14.632812 18.90625 -24.265625 C 18.90625 -33.992188 22.449219 -38.71875 28.265625 -38.71875 C 34.082031 -38.71875 37.625 -33.992188 37.625 -24.265625 C 37.625 -14.632812 34.082031 -9.816406 28.265625 -9.816406 Z M 28.265625 -9.816406 "/></g></g></g><g fill="#ffb601" fill-opacity="0.302"><g transform="translate(337.995362, 173.74212)"><g><path d="M 24.539062 -37.992188 L 35.265625 -37.992188 L 35.265625 -48.167969 L 24.539062 -48.167969 L 24.539062 -60.710938 L 8.179688 -60.710938 L 8.179688 -48.167969 L 0.453125 -48.167969 L 0.453125 -37.992188 L 8.179688 -37.992188 L 8.179688 -17.722656 C 8.179688 -14.996094 8.179688 -12.722656 8.363281 -9.90625 C 8.90625 -2.453125 12.542969 1.273438 24.628906 1.273438 C 28.082031 1.273438 31.082031 1 34.265625 0.453125 L 34.265625 -9.726562 C 26.539062 -9.359375 24.992188 -10.453125 24.628906 -15.359375 C 24.539062 -16.632812 24.539062 -18.449219 24.539062 -20.085938 Z M 24.539062 -37.992188 "/></g></g></g><g fill="#ffb601" fill-opacity="0.302"><g transform="translate(374.349258, 173.74212)"><g><path d="M 32.082031 -51.894531 L 46.171875 -63.257812 L 31.628906 -63.257812 L 23.359375 -51.894531 Z M 28.265625 -49.804688 C 12.359375 -49.804688 2.179688 -39.898438 2.179688 -24.265625 C 2.179688 -8.726562 12.359375 1.273438 28.265625 1.273438 C 44.171875 1.273438 54.351562 -8.726562 54.351562 -24.265625 C 54.351562 -39.898438 44.171875 -49.804688 28.265625 -49.804688 Z M 28.265625 -9.816406 C 22.449219 -9.816406 18.90625 -14.632812 18.90625 -24.265625 C 18.90625 -33.992188 22.449219 -38.71875 28.265625 -38.71875 C 34.082031 -38.71875 37.625 -33.992188 37.625 -24.265625 C 37.625 -14.632812 34.082031 -9.816406 28.265625 -9.816406 Z M 28.265625 -9.816406 "/></g></g></g><g fill="#ffb601" fill-opacity="0.302"><g transform="translate(430.879558, 173.74212)"><g><path d="M 36.992188 -24.449219 L 53.53125 -48.535156 L 34.71875 -48.535156 L 27.265625 -34.535156 L 19.632812 -48.535156 L 0.546875 -48.535156 L 16.8125 -24.628906 L -0.0898438 0 L 18.722656 0 L 26.902344 -14.632812 L 34.628906 0 L 53.714844 0 Z M 36.992188 -24.449219 "/></g></g></g><g fill="#ffb601" fill-opacity="0.302"><g transform="translate(484.501533, 173.74212)"><g><path d="M 13.085938 -68.253906 C 7.996094 -68.253906 4.636719 -65.164062 4.636719 -60.257812 C 4.636719 -55.351562 7.996094 -52.257812 13.085938 -52.257812 C 18.175781 -52.257812 21.539062 -55.351562 21.539062 -60.257812 C 21.539062 -65.164062 18.175781 -68.253906 13.085938 -68.253906 Z M 21.265625 0 L 21.265625 -48.535156 L 4.90625 -48.535156 L 4.90625 0 Z M 21.265625 0 "/></g></g></g><g fill="#ffb601" fill-opacity="0.302"><g transform="translate(510.676346, 173.74212)"><g><path d="M 27.71875 -49.804688 C 13.449219 -49.804688 2.179688 -40.445312 2.179688 -23.722656 C 2.179688 -7.726562 12.722656 1.273438 26.628906 1.273438 C 39.808594 1.273438 49.53125 -5.269531 51.351562 -17.8125 L 35.265625 -17.8125 C 34.355469 -12.542969 31.265625 -9.816406 27.539062 -9.816406 C 21.996094 -9.816406 18.90625 -14.359375 18.90625 -24.722656 C 18.90625 -34.082031 21.902344 -38.71875 27.355469 -38.71875 C 31.445312 -38.71875 34.628906 -36.355469 35.355469 -29.992188 L 51.167969 -29.992188 C 50.714844 -40.898438 41.988281 -49.804688 27.71875 -49.804688 Z M 27.71875 -49.804688 "/></g></g></g><g fill="#ffb601" fill-opacity="0.302"><g transform="translate(564.025688, 173.74212)"><g><path d="M 28.265625 -49.804688 C 12.359375 -49.804688 2.179688 -39.898438 2.179688 -24.265625 C 2.179688 -8.726562 12.359375 1.273438 28.265625 1.273438 C 44.171875 1.273438 54.351562 -8.726562 54.351562 -24.265625 C 54.351562 -39.898438 44.171875 -49.804688 28.265625 -49.804688 Z M 28.265625 -9.816406 C 22.449219 -9.816406 18.90625 -14.632812 18.90625 -24.265625 C 18.90625 -33.992188 22.449219 -38.71875 28.265625 -38.71875 C 34.082031 -38.71875 37.625 -33.992188 37.625 -24.265625 C 37.625 -14.632812 34.082031 -9.816406 28.265625 -9.816406 Z M 28.265625 -9.816406 "/></g></g></g><g fill="#ffb601" fill-opacity="0.302"><g transform="translate(620.555963, 173.74212)"><g><path d="M 24.902344 -49.804688 C 11.996094 -49.804688 3.636719 -43.808594 3.636719 -34.171875 C 3.636719 -25.902344 9.179688 -21.632812 18.449219 -19.449219 C 27.085938 -17.449219 30.175781 -15.722656 30.175781 -12.632812 C 30.175781 -10.089844 27.902344 -8.90625 24.992188 -8.90625 C 21.539062 -8.90625 18.632812 -11.359375 17.722656 -15.085938 L 1.636719 -15.085938 C 2.910156 -4.179688 11.90625 1.273438 25.085938 1.273438 C 36.808594 1.273438 46.535156 -3.542969 46.535156 -13.90625 C 46.535156 -23.265625 40.261719 -27.085938 31.445312 -29.265625 C 22.175781 -31.539062 19.996094 -33.355469 19.996094 -36.082031 C 19.996094 -38.171875 21.632812 -39.625 23.902344 -39.625 C 26.8125 -39.625 28.449219 -37.71875 29.175781 -34.355469 L 45.261719 -34.355469 C 43.988281 -43.171875 36.992188 -49.804688 24.902344 -49.804688 Z M 24.902344 -49.804688 "/></g></g></g><g fill="#ffb601" fill-opacity="0.502"><g transform="translate(114.219341, 169.725379)"><g><path d="M 42.535156 -16.269531 L 47.804688 0 L 65.621094 0 L 42.988281 -62.710938 L 22.996094 -62.710938 L 0.363281 0 L 17.722656 0 L 22.996094 -16.269531 Z M 32.808594 -48.261719 L 38.625 -28.992188 L 26.992188 -28.992188 Z M 32.808594 -48.261719 "/></g></g></g><g fill="#ffb601" fill-opacity="0.502"><g transform="translate(178.474846, 169.725379)"><g><path d="M 55.894531 -48.535156 L 39.535156 -48.535156 L 39.535156 -42.261719 L 36.355469 -47.441406 C 33.902344 -48.898438 29.175781 -49.804688 25.175781 -49.804688 C 12.722656 -49.804688 2.179688 -41.171875 2.179688 -23.902344 C 2.179688 -9.542969 11.269531 -0.546875 24.449219 -0.546875 C 29.355469 -0.546875 33.171875 -1.546875 35.898438 -3.542969 L 39.535156 -8.90625 L 39.535156 -7.542969 C 39.535156 -4.90625 39.445312 -2.636719 39.355469 -1.179688 C 38.898438 5.363281 34.445312 7.996094 28.355469 7.996094 C 23.265625 7.996094 19.539062 6.179688 19.175781 3 L 19.085938 2.089844 L 3.273438 2.089844 L 3.363281 3 C 4.542969 14.085938 13.359375 19.996094 27.902344 19.996094 C 44.351562 19.996094 55.257812 12.90625 55.804688 -3 C 55.894531 -5.636719 55.894531 -9.359375 55.894531 -12.359375 Z M 29.175781 -11.632812 C 23.449219 -11.632812 18.90625 -15.996094 18.90625 -25.085938 C 18.90625 -34.992188 23.265625 -38.71875 29.628906 -38.71875 C 34.535156 -38.71875 39.535156 -35.445312 39.535156 -25.722656 L 39.535156 -25.449219 C 39.535156 -15.269531 35.171875 -11.632812 29.175781 -11.632812 Z M 29.175781 -11.632812 "/></g></g></g><g fill="#ffb601" fill-opacity="0.502"><g transform="translate(239.276724, 169.725379)"><g><path d="M 34.265625 -49.804688 C 31.175781 -49.804688 27.355469 -48.441406 24.722656 -45.535156 L 21.265625 -38.71875 L 21.265625 -48.535156 L 4.90625 -48.535156 L 4.90625 0 L 21.265625 0 L 21.265625 -17.8125 C 21.265625 -32.445312 25.722656 -36.992188 37.992188 -36.171875 L 37.992188 -49.53125 C 36.808594 -49.714844 35.808594 -49.804688 34.265625 -49.804688 Z M 34.265625 -49.804688 "/></g></g></g><g fill="#ffb601" fill-opacity="0.502"><g transform="translate(277.448311, 169.725379)"><g><path d="M 28.265625 -49.804688 C 12.359375 -49.804688 2.179688 -39.898438 2.179688 -24.265625 C 2.179688 -8.726562 12.359375 1.273438 28.265625 1.273438 C 44.171875 1.273438 54.351562 -8.726562 54.351562 -24.265625 C 54.351562 -39.898438 44.171875 -49.804688 28.265625 -49.804688 Z M 28.265625 -9.816406 C 22.449219 -9.816406 18.90625 -14.632812 18.90625 -24.265625 C 18.90625 -33.992188 22.449219 -38.71875 28.265625 -38.71875 C 34.082031 -38.71875 37.625 -33.992188 37.625 -24.265625 C 37.625 -14.632812 34.082031 -9.816406 28.265625 -9.816406 Z M 28.265625 -9.816406 "/></g></g></g><g fill="#ffb601" fill-opacity="0.502"><g transform="translate(333.978622, 169.725379)"><g><path d="M 24.539062 -37.992188 L 35.265625 -37.992188 L 35.265625 -48.167969 L 24.539062 -48.167969 L 24.539062 -60.710938 L 8.179688 -60.710938 L 8.179688 -48.167969 L 0.453125 -48.167969 L 0.453125 -37.992188 L 8.179688 -37.992188 L 8.179688 -17.722656 C 8.179688 -14.996094 8.179688 -12.722656 8.363281 -9.90625 C 8.90625 -2.453125 12.542969 1.273438 24.628906 1.273438 C 28.082031 1.273438 31.082031 1 34.265625 0.453125 L 34.265625 -9.726562 C 26.539062 -9.359375 24.992188 -10.453125 24.628906 -15.359375 C 24.539062 -16.632812 24.539062 -18.449219 24.539062 -20.085938 Z M 24.539062 -37.992188 "/></g></g></g><g fill="#ffb601" fill-opacity="0.502"><g transform="translate(370.332518, 169.725379)"><g><path d="M 32.082031 -51.894531 L 46.171875 -63.257812 L 31.628906 -63.257812 L 23.359375 -51.894531 Z M 28.265625 -49.804688 C 12.359375 -49.804688 2.179688 -39.898438 2.179688 -24.265625 C 2.179688 -8.726562 12.359375 1.273438 28.265625 1.273438 C 44.171875 1.273438 54.351562 -8.726562 54.351562 -24.265625 C 54.351562 -39.898438 44.171875 -49.804688 28.265625 -49.804688 Z M 28.265625 -9.816406 C 22.449219 -9.816406 18.90625 -14.632812 18.90625 -24.265625 C 18.90625 -33.992188 22.449219 -38.71875 28.265625 -38.71875 C 34.082031 -38.71875 37.625 -33.992188 37.625 -24.265625 C 37.625 -14.632812 34.082031 -9.816406 28.265625 -9.816406 Z M 28.265625 -9.816406 "/></g></g></g><g fill="#ffb601" fill-opacity="0.502"><g transform="translate(426.862817, 169.725379)"><g><path d="M 36.992188 -24.449219 L 53.53125 -48.535156 L 34.71875 -48.535156 L 27.265625 -34.535156 L 19.632812 -48.535156 L 0.546875 -48.535156 L 16.8125 -24.628906 L -0.0898438 0 L 18.722656 0 L 26.902344 -14.632812 L 34.628906 0 L 53.714844 0 Z M 36.992188 -24.449219 "/></g></g></g><g fill="#ffb601" fill-opacity="0.502"><g transform="translate(480.484793, 169.725379)"><g><path d="M 13.085938 -68.253906 C 7.996094 -68.253906 4.636719 -65.164062 4.636719 -60.257812 C 4.636719 -55.351562 7.996094 -52.257812 13.085938 -52.257812 C 18.175781 -52.257812 21.539062 -55.351562 21.539062 -60.257812 C 21.539062 -65.164062 18.175781 -68.253906 13.085938 -68.253906 Z M 21.265625 0 L 21.265625 -48.535156 L 4.90625 -48.535156 L 4.90625 0 Z M 21.265625 0 "/></g></g></g><g fill="#ffb601" fill-opacity="0.502"><g transform="translate(506.659606, 169.725379)"><g><path d="M 27.71875 -49.804688 C 13.449219 -49.804688 2.179688 -40.445312 2.179688 -23.722656 C 2.179688 -7.726562 12.722656 1.273438 26.628906 1.273438 C 39.808594 1.273438 49.53125 -5.269531 51.351562 -17.8125 L 35.265625 -17.8125 C 34.355469 -12.542969 31.265625 -9.816406 27.539062 -9.816406 C 21.996094 -9.816406 18.90625 -14.359375 18.90625 -24.722656 C 18.90625 -34.082031 21.902344 -38.71875 27.355469 -38.71875 C 31.445312 -38.71875 34.628906 -36.355469 35.355469 -29.992188 L 51.167969 -29.992188 C 50.714844 -40.898438 41.988281 -49.804688 27.71875 -49.804688 Z M 27.71875 -49.804688 "/></g></g></g><g fill="#ffb601" fill-opacity="0.502"><g transform="translate(560.008947, 169.725379)"><g><path d="M 28.265625 -49.804688 C 12.359375 -49.804688 2.179688 -39.898438 2.179688 -24.265625 C 2.179688 -8.726562 12.359375 1.273438 28.265625 1.273438 C 44.171875 1.273438 54.351562 -8.726562 54.351562 -24.265625 C 54.351562 -39.898438 44.171875 -49.804688 28.265625 -49.804688 Z M 28.265625 -9.816406 C 22.449219 -9.816406 18.90625 -14.632812 18.90625 -24.265625 C 18.90625 -33.992188 22.449219 -38.71875 28.265625 -38.71875 C 34.082031 -38.71875 37.625 -33.992188 37.625 -24.265625 C 37.625 -14.632812 34.082031 -9.816406 28.265625 -9.816406 Z M 28.265625 -9.816406 "/></g></g></g><g fill="#ffb601" fill-opacity="0.502"><g transform="translate(616.539222, 169.725379)"><g><path d="M 24.902344 -49.804688 C 11.996094 -49.804688 3.636719 -43.808594 3.636719 -34.171875 C 3.636719 -25.902344 9.179688 -21.632812 18.449219 -19.449219 C 27.085938 -17.449219 30.175781 -15.722656 30.175781 -12.632812 C 30.175781 -10.089844 27.902344 -8.90625 24.992188 -8.90625 C 21.539062 -8.90625 18.632812 -11.359375 17.722656 -15.085938 L 1.636719 -15.085938 C 2.910156 -4.179688 11.90625 1.273438 25.085938 1.273438 C 36.808594 1.273438 46.535156 -3.542969 46.535156 -13.90625 C 46.535156 -23.265625 40.261719 -27.085938 31.445312 -29.265625 C 22.175781 -31.539062 19.996094 -33.355469 19.996094 -36.082031 C 19.996094 -38.171875 21.632812 -39.625 23.902344 -39.625 C 26.8125 -39.625 28.449219 -37.71875 29.175781 -34.355469 L 45.261719 -34.355469 C 43.988281 -43.171875 36.992188 -49.804688 24.902344 -49.804688 Z M 24.902344 -49.804688 "/></g></g></g><g fill="#ffffff" fill-opacity="1"><g transform="translate(110.2026, 165.708639)"><g><path d="M 42.535156 -16.269531 L 47.804688 0 L 65.621094 0 L 42.988281 -62.710938 L 22.996094 -62.710938 L 0.363281 0 L 17.722656 0 L 22.996094 -16.269531 Z M 32.808594 -48.261719 L 38.625 -28.992188 L 26.992188 -28.992188 Z M 32.808594 -48.261719 "/></g></g></g><g fill="#ffffff" fill-opacity="1"><g transform="translate(174.458106, 165.708639)"><g><path d="M 55.894531 -48.535156 L 39.535156 -48.535156 L 39.535156 -42.261719 L 36.355469 -47.441406 C 33.902344 -48.898438 29.175781 -49.804688 25.175781 -49.804688 C 12.722656 -49.804688 2.179688 -41.171875 2.179688 -23.902344 C 2.179688 -9.542969 11.269531 -0.546875 24.449219 -0.546875 C 29.355469 -0.546875 33.171875 -1.546875 35.898438 -3.542969 L 39.535156 -8.90625 L 39.535156 -7.542969 C 39.535156 -4.90625 39.445312 -2.636719 39.355469 -1.179688 C 38.898438 5.363281 34.445312 7.996094 28.355469 7.996094 C 23.265625 7.996094 19.539062 6.179688 19.175781 3 L 19.085938 2.089844 L 3.273438 2.089844 L 3.363281 3 C 4.542969 14.085938 13.359375 19.996094 27.902344 19.996094 C 44.351562 19.996094 55.257812 12.90625 55.804688 -3 C 55.894531 -5.636719 55.894531 -9.359375 55.894531 -12.359375 Z M 29.175781 -11.632812 C 23.449219 -11.632812 18.90625 -15.996094 18.90625 -25.085938 C 18.90625 -34.992188 23.265625 -38.71875 29.628906 -38.71875 C 34.535156 -38.71875 39.535156 -35.445312 39.535156 -25.722656 L 39.535156 -25.449219 C 39.535156 -15.269531 35.171875 -11.632812 29.175781 -11.632812 Z M 29.175781 -11.632812 "/></g></g></g><g fill="#ffffff" fill-opacity="1"><g transform="translate(235.259984, 165.708639)"><g><path d="M 34.265625 -49.804688 C 31.175781 -49.804688 27.355469 -48.441406 24.722656 -45.535156 L 21.265625 -38.71875 L 21.265625 -48.535156 L 4.90625 -48.535156 L 4.90625 0 L 21.265625 0 L 21.265625 -17.8125 C 21.265625 -32.445312 25.722656 -36.992188 37.992188 -36.171875 L 37.992188 -49.53125 C 36.808594 -49.714844 35.808594 -49.804688 34.265625 -49.804688 Z M 34.265625 -49.804688 "/></g></g></g><g fill="#ffffff" fill-opacity="1"><g transform="translate(273.43157, 165.708639)"><g><path d="M 28.265625 -49.804688 C 12.359375 -49.804688 2.179688 -39.898438 2.179688 -24.265625 C 2.179688 -8.726562 12.359375 1.273438 28.265625 1.273438 C 44.171875 1.273438 54.351562 -8.726562 54.351562 -24.265625 C 54.351562 -39.898438 44.171875 -49.804688 28.265625 -49.804688 Z M 28.265625 -9.816406 C 22.449219 -9.816406 18.90625 -14.632812 18.90625 -24.265625 C 18.90625 -33.992188 22.449219 -38.71875 28.265625 -38.71875 C 34.082031 -38.71875 37.625 -33.992188 37.625 -24.265625 C 37.625 -14.632812 34.082031 -9.816406 28.265625 -9.816406 Z M 28.265625 -9.816406 "/></g></g></g><g fill="#ffffff" fill-opacity="1"><g transform="translate(329.961881, 165.708639)"><g><path d="M 24.539062 -37.992188 L 35.265625 -37.992188 L 35.265625 -48.167969 L 24.539062 -48.167969 L 24.539062 -60.710938 L 8.179688 -60.710938 L 8.179688 -48.167969 L 0.453125 -48.167969 L 0.453125 -37.992188 L 8.179688 -37.992188 L 8.179688 -17.722656 C 8.179688 -14.996094 8.179688 -12.722656 8.363281 -9.90625 C 8.90625 -2.453125 12.542969 1.273438 24.628906 1.273438 C 28.082031 1.273438 31.082031 1 34.265625 0.453125 L 34.265625 -9.726562 C 26.539062 -9.359375 24.992188 -10.453125 24.628906 -15.359375 C 24.539062 -16.632812 24.539062 -18.449219 24.539062 -20.085938 Z M 24.539062 -37.992188 "/></g></g></g><g fill="#ffffff" fill-opacity="1"><g transform="translate(366.315777, 165.708639)"><g><path d="M 32.082031 -51.894531 L 46.171875 -63.257812 L 31.628906 -63.257812 L 23.359375 -51.894531 Z M 28.265625 -49.804688 C 12.359375 -49.804688 2.179688 -39.898438 2.179688 -24.265625 C 2.179688 -8.726562 12.359375 1.273438 28.265625 1.273438 C 44.171875 1.273438 54.351562 -8.726562 54.351562 -24.265625 C 54.351562 -39.898438 44.171875 -49.804688 28.265625 -49.804688 Z M 28.265625 -9.816406 C 22.449219 -9.816406 18.90625 -14.632812 18.90625 -24.265625 C 18.90625 -33.992188 22.449219 -38.71875 28.265625 -38.71875 C 34.082031 -38.71875 37.625 -33.992188 37.625 -24.265625 C 37.625 -14.632812 34.082031 -9.816406 28.265625 -9.816406 Z M 28.265625 -9.816406 "/></g></g></g><g fill="#ffffff" fill-opacity="1"><g transform="translate(422.846076, 165.708639)"><g><path d="M 36.992188 -24.449219 L 53.53125 -48.535156 L 34.71875 -48.535156 L 27.265625 -34.535156 L 19.632812 -48.535156 L 0.546875 -48.535156 L 16.8125 -24.628906 L -0.0898438 0 L 18.722656 0 L 26.902344 -14.632812 L 34.628906 0 L 53.714844 0 Z M 36.992188 -24.449219 "/></g></g></g><g fill="#ffffff" fill-opacity="1"><g transform="translate(476.468052, 165.708639)"><g><path d="M 13.085938 -68.253906 C 7.996094 -68.253906 4.636719 -65.164062 4.636719 -60.257812 C 4.636719 -55.351562 7.996094 -52.257812 13.085938 -52.257812 C 18.175781 -52.257812 21.539062 -55.351562 21.539062 -60.257812 C 21.539062 -65.164062 18.175781 -68.253906 13.085938 -68.253906 Z M 21.265625 0 L 21.265625 -48.535156 L 4.90625 -48.535156 L 4.90625 0 Z M 21.265625 0 "/></g></g></g><g fill="#ffffff" fill-opacity="1"><g transform="translate(502.642865, 165.708639)"><g><path d="M 27.71875 -49.804688 C 13.449219 -49.804688 2.179688 -40.445312 2.179688 -23.722656 C 2.179688 -7.726562 12.722656 1.273438 26.628906 1.273438 C 39.808594 1.273438 49.53125 -5.269531 51.351562 -17.8125 L 35.265625 -17.8125 C 34.355469 -12.542969 31.265625 -9.816406 27.539062 -9.816406 C 21.996094 -9.816406 18.90625 -14.359375 18.90625 -24.722656 C 18.90625 -34.082031 21.902344 -38.71875 27.355469 -38.71875 C 31.445312 -38.71875 34.628906 -36.355469 35.355469 -29.992188 L 51.167969 -29.992188 C 50.714844 -40.898438 41.988281 -49.804688 27.71875 -49.804688 Z M 27.71875 -49.804688 "/></g></g></g><g fill="#ffffff" fill-opacity="1"><g transform="translate(555.992207, 165.708639)"><g><path d="M 28.265625 -49.804688 C 12.359375 -49.804688 2.179688 -39.898438 2.179688 -24.265625 C 2.179688 -8.726562 12.359375 1.273438 28.265625 1.273438 C 44.171875 1.273438 54.351562 -8.726562 54.351562 -24.265625 C 54.351562 -39.898438 44.171875 -49.804688 28.265625 -49.804688 Z M 28.265625 -9.816406 C 22.449219 -9.816406 18.90625 -14.632812 18.90625 -24.265625 C 18.90625 -33.992188 22.449219 -38.71875 28.265625 -38.71875 C 34.082031 -38.71875 37.625 -33.992188 37.625 -24.265625 C 37.625 -14.632812 34.082031 -9.816406 28.265625 -9.816406 Z M 28.265625 -9.816406 "/></g></g></g><g fill="#ffffff" fill-opacity="1"><g transform="translate(612.522482, 165.708639)"><g><path d="M 24.902344 -49.804688 C 11.996094 -49.804688 3.636719 -43.808594 3.636719 -34.171875 C 3.636719 -25.902344 9.179688 -21.632812 18.449219 -19.449219 C 27.085938 -17.449219 30.175781 -15.722656 30.175781 -12.632812 C 30.175781 -10.089844 27.902344 -8.90625 24.992188 -8.90625 C 21.539062 -8.90625 18.632812 -11.359375 17.722656 -15.085938 L 1.636719 -15.085938 C 2.910156 -4.179688 11.90625 1.273438 25.085938 1.273438 C 36.808594 1.273438 46.535156 -3.542969 46.535156 -13.90625 C 46.535156 -23.265625 40.261719 -27.085938 31.445312 -29.265625 C 22.175781 -31.539062 19.996094 -33.355469 19.996094 -36.082031 C 19.996094 -38.171875 21.632812 -39.625 23.902344 -39.625 C 26.8125 -39.625 28.449219 -37.71875 29.175781 -34.355469 L 45.261719 -34.355469 C 43.988281 -43.171875 36.992188 -49.804688 24.902344 -49.804688 Z M 24.902344 -49.804688 "/></g></g></g><g fill="#ffffff" fill-opacity="1"><g transform="translate(206.72674, 239.720963)"><g><path d="M 17.136719 0 L 19.875 0 L 16.011719 -23.914062 L 12.886719 -23.527344 L 0.210938 0 L 3.160156 0 L 6.8125 -6.917969 L 16.152344 -6.917969 Z M 8.007812 -9.199219 L 12.113281 -16.996094 L 14.082031 -20.824219 L 14.152344 -20.824219 L 14.675781 -16.996094 L 15.800781 -9.199219 Z M 8.007812 -9.199219 "/></g></g></g><g fill="#ffffff" fill-opacity="1"><g transform="translate(227.829103, 239.720963)"><g/></g></g><g fill="#ffffff" fill-opacity="1"><g transform="translate(234.851518, 239.720963)"><g><path d="M 20.753906 -4.25 L 19.453125 -5.546875 C 18.117188 -3.019531 16.152344 -1.230469 13.554688 -0.210938 L 16.011719 -15.800781 L 13.414062 -15.449219 C 12.042969 -15.660156 10.921875 -15.800781 9.832031 -15.800781 C 4.285156 -15.800781 0.984375 -11.65625 0.984375 -5.582031 C 0.984375 -1.683594 2.597656 0.351562 6.074219 0.351562 C 8.074219 0.351562 9.65625 -0.316406 11.269531 -2.070312 L 9.867188 6.917969 L 12.429688 6.917969 L 13.203125 1.964844 C 17.101562 0.527344 19.101562 -1.40625 20.753906 -4.25 Z M 6.636719 -1.71875 C 4.425781 -1.71875 3.582031 -2.949219 3.582031 -5.582031 C 3.582031 -10.570312 5.898438 -13.730469 9.972656 -13.730469 C 11.203125 -13.730469 11.972656 -13.625 13.097656 -13.414062 L 11.691406 -4.53125 C 9.867188 -2.527344 8.285156 -1.71875 6.636719 -1.71875 Z M 6.636719 -1.71875 "/></g></g></g><g fill="#ffffff" fill-opacity="1"><g transform="translate(253.215136, 239.720963)"><g><path d="M 19.488281 -5.546875 C 18.398438 -3.511719 16.925781 -1.929688 15.273438 -1.929688 C 14.011719 -1.929688 13.976562 -3.195312 14.1875 -4.460938 L 15.976562 -15.800781 L 13.378906 -15.449219 L 11.585938 -4.425781 C 10.253906 -3.265625 7.9375 -1.71875 5.898438 -1.71875 C 3.96875 -1.71875 3.195312 -2.597656 3.546875 -4.914062 L 5.265625 -15.800781 L 2.667969 -15.449219 L 0.984375 -4.878906 C 0.457031 -1.511719 1.964844 0.351562 5.230469 0.351562 C 8.007812 0.351562 10.007812 -1.019531 11.480469 -2.316406 C 11.550781 -0.738281 12.5 0.351562 14.222656 0.351562 C 16.890625 0.351562 19.3125 -1.683594 20.789062 -4.25 Z M 19.488281 -5.546875 "/></g></g></g><g fill="#ffffff" fill-opacity="1"><g transform="translate(271.61387, 239.720963)"><g><path d="M 1.964844 -18.257812 L 4.460938 -18.257812 L 8.777344 -23.28125 L 5.6875 -23.28125 Z M 9.867188 -5.546875 C 8.777344 -3.511719 7.128906 -1.929688 5.089844 -1.929688 C 3.582031 -1.929688 3.300781 -3.089844 3.582031 -4.878906 L 5.300781 -15.800781 L 2.703125 -15.449219 L 0.949219 -4.636719 C 0.421875 -1.371094 1.929688 0.351562 4.460938 0.351562 C 7.339844 0.351562 9.761719 -1.71875 11.167969 -4.25 Z M 9.867188 -5.546875 "/></g></g></g><g fill="#ffffff" fill-opacity="1"><g transform="translate(280.391886, 239.720963)"><g><path d="M 29.039062 -5.546875 C 27.84375 -3.230469 26.40625 -1.929688 25 -1.929688 C 23.949219 -1.929688 23.527344 -2.703125 23.808594 -4.460938 L 24.859375 -10.957031 C 25.351562 -14.011719 23.984375 -15.800781 21.171875 -15.800781 C 19.242188 -15.800781 17.207031 -14.957031 14.710938 -13.097656 C 14.398438 -14.816406 13.097656 -15.800781 11.027344 -15.800781 C 9.164062 -15.800781 7.199219 -15.027344 4.878906 -13.34375 L 5.265625 -15.800781 L 2.667969 -15.449219 L 0.210938 0 L 2.773438 0 L 4.53125 -11.027344 C 6.671875 -12.746094 8.777344 -13.730469 10.21875 -13.730469 C 11.796875 -13.730469 12.429688 -12.605469 12.078125 -10.535156 L 10.394531 0 L 12.957031 0 L 14.710938 -11.0625 C 16.890625 -12.78125 18.925781 -13.730469 20.367188 -13.730469 C 21.945312 -13.730469 22.578125 -12.605469 22.226562 -10.535156 L 21.171875 -4.214844 C 20.683594 -1.265625 21.839844 0.351562 24.085938 0.351562 C 26.511719 0.351562 28.652344 -1.265625 30.339844 -4.25 Z M 29.039062 -5.546875 "/></g></g></g><g fill="#ffffff" fill-opacity="1"><g transform="translate(308.341105, 239.720963)"><g><path d="M 4.601562 -18.363281 C 5.792969 -18.363281 6.847656 -19.347656 6.847656 -20.648438 C 6.847656 -21.523438 6.074219 -22.296875 5.125 -22.296875 C 3.863281 -22.296875 2.84375 -21.3125 2.84375 -20.015625 C 2.84375 -19.101562 3.652344 -18.363281 4.601562 -18.363281 Z M 9.867188 -5.546875 C 8.777344 -3.511719 7.128906 -1.929688 5.089844 -1.929688 C 3.582031 -1.929688 3.300781 -3.089844 3.582031 -4.878906 L 5.300781 -15.800781 L 2.703125 -15.449219 L 0.949219 -4.636719 C 0.421875 -1.371094 1.929688 0.351562 4.460938 0.351562 C 7.339844 0.351562 9.761719 -1.71875 11.167969 -4.25 Z M 9.867188 -5.546875 "/></g></g></g><g fill="#ffffff" fill-opacity="1"><g transform="translate(317.119121, 239.720963)"><g><path d="M 8.25 0.351562 C 12.359375 0.351562 15.238281 -1.160156 17.136719 -4.25 L 15.835938 -5.546875 C 14.292969 -2.984375 11.867188 -1.71875 8.53125 -1.71875 C 5.230469 -1.71875 3.582031 -3.441406 3.582031 -7.023438 C 3.582031 -10.886719 5.722656 -13.730469 8.601562 -13.730469 C 10.464844 -13.730469 11.339844 -12.464844 10.535156 -10.816406 L 12.921875 -10.183594 C 14.257812 -13.449219 12.570312 -15.800781 8.953125 -15.800781 C 4.390625 -15.800781 1.089844 -12.148438 1.019531 -6.988281 C 0.949219 -2.175781 3.195312 0.351562 8.25 0.351562 Z M 8.25 0.351562 "/></g></g></g><g fill="#ffffff" fill-opacity="1"><g transform="translate(331.8662, 239.720963)"><g><path d="M 6.003906 0.351562 C 8.074219 0.351562 9.761719 -0.351562 11.480469 -2.28125 C 11.65625 -0.597656 12.640625 0.351562 14.328125 0.351562 C 16.609375 0.351562 19.277344 -1.441406 20.824219 -4.25 L 19.523438 -5.546875 C 18.363281 -3.265625 16.679688 -1.929688 15.34375 -1.929688 C 14.257812 -1.929688 13.941406 -2.703125 14.222656 -4.460938 L 16.011719 -15.800781 L 13.414062 -15.449219 C 12.042969 -15.660156 10.921875 -15.800781 9.832031 -15.800781 C 4.285156 -15.800781 0.984375 -11.65625 0.984375 -5.582031 C 0.984375 -1.683594 2.738281 0.351562 6.003906 0.351562 Z M 6.636719 -1.71875 C 4.460938 -1.71875 3.582031 -3.054688 3.582031 -5.6875 C 3.582031 -10.5 5.898438 -13.730469 9.972656 -13.730469 C 11.203125 -13.730469 11.972656 -13.625 13.097656 -13.414062 L 11.621094 -4.460938 C 9.832031 -2.527344 8.285156 -1.71875 6.636719 -1.71875 Z M 6.636719 -1.71875 "/></g></g></g><g fill="#ffffff" fill-opacity="1"><g transform="translate(350.300039, 239.720963)"><g/></g></g><g fill="#ffffff" fill-opacity="1"><g transform="translate(357.322455, 239.720963)"><g><path d="M 19.59375 -5.546875 C 18.433594 -3.300781 16.960938 -1.929688 15.589844 -1.929688 C 14.5 -1.929688 14.082031 -2.703125 14.363281 -4.460938 L 15.414062 -10.957031 C 15.90625 -14.082031 14.535156 -15.800781 11.515625 -15.800781 C 9.304688 -15.800781 7.09375 -14.78125 4.8125 -12.992188 L 5.265625 -15.800781 L 2.667969 -15.449219 L 0.210938 0 L 2.773438 0 L 4.460938 -10.710938 C 6.847656 -12.675781 9.128906 -13.730469 10.710938 -13.730469 C 12.464844 -13.730469 13.132812 -12.640625 12.78125 -10.535156 L 11.726562 -4.214844 C 11.234375 -1.265625 12.429688 0.351562 14.675781 0.351562 C 17.171875 0.351562 19.3125 -1.476562 20.890625 -4.25 Z M 19.59375 -5.546875 "/></g></g></g><g fill="#ffffff" fill-opacity="1"><g transform="translate(375.826515, 239.720963)"><g><path d="M 6.003906 0.351562 C 8.074219 0.351562 9.761719 -0.351562 11.480469 -2.28125 C 11.65625 -0.597656 12.640625 0.351562 14.328125 0.351562 C 16.609375 0.351562 19.277344 -1.441406 20.824219 -4.25 L 19.523438 -5.546875 C 18.363281 -3.265625 16.679688 -1.929688 15.34375 -1.929688 C 14.257812 -1.929688 13.941406 -2.703125 14.222656 -4.460938 L 16.011719 -15.800781 L 13.414062 -15.449219 C 12.042969 -15.660156 10.921875 -15.800781 9.832031 -15.800781 C 4.285156 -15.800781 0.984375 -11.65625 0.984375 -5.582031 C 0.984375 -1.683594 2.738281 0.351562 6.003906 0.351562 Z M 6.636719 -1.71875 C 4.460938 -1.71875 3.582031 -3.054688 3.582031 -5.6875 C 3.582031 -10.5 5.898438 -13.730469 9.972656 -13.730469 C 11.203125 -13.730469 11.972656 -13.625 13.097656 -13.414062 L 11.621094 -4.460938 C 9.832031 -2.527344 8.285156 -1.71875 6.636719 -1.71875 Z M 6.636719 -1.71875 "/></g></g></g><g fill="#ffffff" fill-opacity="1"><g transform="translate(394.260354, 239.720963)"><g/></g></g><g fill="#ffffff" fill-opacity="1"><g transform="translate(401.282769, 239.720963)"><g><path d="M 8.25 0.351562 C 12.359375 0.351562 15.238281 -1.160156 17.136719 -4.25 L 15.835938 -5.546875 C 14.292969 -2.984375 11.867188 -1.71875 8.53125 -1.71875 C 5.230469 -1.71875 3.582031 -3.441406 3.582031 -7.023438 C 3.582031 -10.886719 5.722656 -13.730469 8.601562 -13.730469 C 10.464844 -13.730469 11.339844 -12.464844 10.535156 -10.816406 L 12.921875 -10.183594 C 14.257812 -13.449219 12.570312 -15.800781 8.953125 -15.800781 C 4.390625 -15.800781 1.089844 -12.148438 1.019531 -6.988281 C 0.949219 -2.175781 3.195312 0.351562 8.25 0.351562 Z M 8.25 0.351562 "/></g></g></g><g fill="#ffffff" fill-opacity="1"><g transform="translate(416.029835, 239.720963)"><g><path d="M 20.050781 -5.546875 C 18.398438 -2.808594 17.101562 -1.929688 15.273438 -1.929688 C 14.398438 -1.929688 13.730469 -2.210938 13.273438 -2.5625 C 14.78125 -4.285156 15.660156 -6.707031 15.660156 -9.515625 C 15.660156 -13.625 13.660156 -15.800781 9.867188 -15.800781 C 4.636719 -15.800781 1.160156 -11.585938 1.089844 -5.96875 C 1.054688 -1.789062 3.054688 0.351562 6.8125 0.351562 C 8.601562 0.351562 10.21875 -0.140625 11.585938 -1.054688 C 12.429688 -0.492188 13.589844 0.0351562 14.957031 0.0351562 C 17.800781 0.0351562 19.945312 -1.753906 21.347656 -4.25 Z M 6.953125 -1.71875 C 4.742188 -1.753906 3.617188 -3.089844 3.652344 -5.898438 C 3.722656 -10.253906 6.144531 -13.730469 9.726562 -13.730469 C 11.972656 -13.730469 13.0625 -12.394531 13.0625 -9.550781 C 13.0625 -5.019531 10.464844 -1.648438 6.953125 -1.71875 Z M 6.953125 -1.71875 "/></g></g></g><g fill="#ffffff" fill-opacity="1"><g transform="translate(434.990363, 239.720963)"><g><path d="M 29.039062 -5.546875 C 27.84375 -3.230469 26.40625 -1.929688 25 -1.929688 C 23.949219 -1.929688 23.527344 -2.703125 23.808594 -4.460938 L 24.859375 -10.957031 C 25.351562 -14.011719 23.984375 -15.800781 21.171875 -15.800781 C 19.242188 -15.800781 17.207031 -14.957031 14.710938 -13.097656 C 14.398438 -14.816406 13.097656 -15.800781 11.027344 -15.800781 C 9.164062 -15.800781 7.199219 -15.027344 4.878906 -13.34375 L 5.265625 -15.800781 L 2.667969 -15.449219 L 0.210938 0 L 2.773438 0 L 4.53125 -11.027344 C 6.671875 -12.746094 8.777344 -13.730469 10.21875 -13.730469 C 11.796875 -13.730469 12.429688 -12.605469 12.078125 -10.535156 L 10.394531 0 L 12.957031 0 L 14.710938 -11.0625 C 16.890625 -12.78125 18.925781 -13.730469 20.367188 -13.730469 C 21.945312 -13.730469 22.578125 -12.605469 22.226562 -10.535156 L 21.171875 -4.214844 C 20.683594 -1.265625 21.839844 0.351562 24.085938 0.351562 C 26.511719 0.351562 28.652344 -1.265625 30.339844 -4.25 Z M 29.039062 -5.546875 "/></g></g></g><g fill="#ffffff" fill-opacity="1"><g transform="translate(462.939582, 239.720963)"><g><path d="M 4.601562 -18.363281 C 5.792969 -18.363281 6.847656 -19.347656 6.847656 -20.648438 C 6.847656 -21.523438 6.074219 -22.296875 5.125 -22.296875 C 3.863281 -22.296875 2.84375 -21.3125 2.84375 -20.015625 C 2.84375 -19.101562 3.652344 -18.363281 4.601562 -18.363281 Z M 9.867188 -5.546875 C 8.777344 -3.511719 7.128906 -1.929688 5.089844 -1.929688 C 3.582031 -1.929688 3.300781 -3.089844 3.582031 -4.878906 L 5.300781 -15.800781 L 2.703125 -15.449219 L 0.949219 -4.636719 C 0.421875 -1.371094 1.929688 0.351562 4.460938 0.351562 C 7.339844 0.351562 9.761719 -1.71875 11.167969 -4.25 Z M 9.867188 -5.546875 "/></g></g></g><g fill="#ffffff" fill-opacity="1"><g transform="translate(471.717598, 239.720963)"><g><path d="M 19.59375 -5.546875 C 18.433594 -3.265625 16.75 -1.929688 15.414062 -1.929688 C 14.328125 -1.929688 14.011719 -2.703125 14.292969 -4.460938 L 17.523438 -24.929688 L 14.921875 -24.578125 L 13.484375 -15.449219 C 12.113281 -15.660156 10.992188 -15.800781 9.902344 -15.800781 C 4.355469 -15.800781 1.054688 -11.65625 1.054688 -5.582031 C 1.054688 -1.683594 2.667969 0.351562 6.144531 0.351562 C 8.214844 0.351562 9.832031 -0.351562 11.550781 -2.28125 C 11.726562 -0.597656 12.710938 0.351562 14.398438 0.351562 C 16.679688 0.351562 19.347656 -1.441406 20.890625 -4.25 Z M 11.691406 -4.460938 C 9.902344 -2.527344 8.355469 -1.71875 6.707031 -1.71875 C 4.496094 -1.71875 3.652344 -2.949219 3.652344 -5.582031 C 3.652344 -10.429688 5.96875 -13.730469 10.042969 -13.730469 C 11.269531 -13.730469 12.042969 -13.625 13.132812 -13.414062 Z M 11.691406 -4.460938 "/></g></g></g><g fill="#ffffff" fill-opacity="1"><g transform="translate(490.221669, 239.720963)"><g><path d="M 6.003906 0.351562 C 8.074219 0.351562 9.761719 -0.351562 11.480469 -2.28125 C 11.65625 -0.597656 12.640625 0.351562 14.328125 0.351562 C 16.609375 0.351562 19.277344 -1.441406 20.824219 -4.25 L 19.523438 -5.546875 C 18.363281 -3.265625 16.679688 -1.929688 15.34375 -1.929688 C 14.257812 -1.929688 13.941406 -2.703125 14.222656 -4.460938 L 16.011719 -15.800781 L 13.414062 -15.449219 C 12.042969 -15.660156 10.921875 -15.800781 9.832031 -15.800781 C 4.285156 -15.800781 0.984375 -11.65625 0.984375 -5.582031 C 0.984375 -1.683594 2.738281 0.351562 6.003906 0.351562 Z M 6.636719 -1.71875 C 4.460938 -1.71875 3.582031 -3.054688 3.582031 -5.6875 C 3.582031 -10.5 5.898438 -13.730469 9.972656 -13.730469 C 11.203125 -13.730469 11.972656 -13.625 13.097656 -13.414062 L 11.621094 -4.460938 C 9.832031 -2.527344 8.285156 -1.71875 6.636719 -1.71875 Z M 6.636719 -1.71875 "/></g></g></g></svg>